<?xml version="1.0" standalone="no"?>
<!DOCTYPE svg PUBLIC "-//W3C//DTD SVG 20010904//EN"
 "http://www.w3.org/TR/2001/REC-SVG-20010904/DTD/svg10.dtd">
<svg version="1.0" xmlns="http://www.w3.org/2000/svg"
 width="516.000000pt" height="212.000000pt" viewBox="0 0 516.000000 212.000000"
 preserveAspectRatio="xMidYMid meet">
<g transform="translate(0.000000,212.000000) scale(0.100000,-0.100000)"
fill="#000000" stroke="none">
<path d="M2037 2095 c4 -20 -9 -40 -67 -102 -90 -98 -151 -195 -190 -304 -47
-127 -42 -401 8 -522 39 -95 99 -189 181 -282 104 -119 89 -128 -198 -125 -13
0 -43 7 -67 15 -68 23 -131 19 -194 -12 -46 -23 -71 -28 -155 -30 -167 -6
-196 -5 -320 7 -66 7 -163 13 -215 14 -69 2 -106 7 -135 21 -95 45 -413 28
-433 -23 -7 -20 -63 -68 -74 -64 -5 1 -13 -9 -18 -24 -6 -14 -14 -22 -20 -19
-5 3 -10 1 -10 -5 0 -6 -12 -28 -26 -49 -26 -40 -28 -141 -3 -157 5 -3 9 -25
9 -50 0 -24 5 -44 10 -44 6 0 10 -11 10 -25 0 -14 4 -25 8 -25 4 0 14 -16 21
-35 7 -19 16 -33 21 -30 5 3 26 -17 47 -44 21 -28 48 -53 60 -57 12 -3 24 -12
27 -20 4 -10 23 -14 66 -14 43 0 73 -6 103 -22 46 -24 30 -23 392 -15 378 8
483 20 513 56 19 23 146 23 164 -1 10 -13 34 -18 103 -21 50 -3 133 -10 185
-16 272 -32 524 -30 609 5 18 8 41 14 51 14 10 0 23 7 30 15 14 17 57 20 62 4
5 -16 74 -30 203 -41 134 -11 124 -11 295 -10 227 1 274 3 302 18 34 18 76 18
120 0 25 -11 83 -15 228 -15 107 0 222 -5 255 -11 144 -24 615 -3 693 31 23
11 42 24 42 29 0 6 7 10 15 10 22 0 132 118 155 166 31 64 28 196 -6 262 -31
60 -159 187 -228 227 l-49 28 -181 -1 c-403 -2 -379 0 -472 -33 -69 -26 -91
-30 -122 -23 -20 5 -86 10 -147 11 -60 1 -123 3 -140 3 -30 1 -463 -10 -542
-13 -89 -3 -93 40 -10 125 179 180 237 319 237 561 0 251 -56 390 -229 565
-59 59 -72 79 -68 98 l4 24 -457 0 -457 0 4 -25z m613 -111 c399 -112 543
-612 264 -922 -290 -322 -815 -219 -965 189 -35 93 -34 284 0 379 104 283 407
436 701 354z m-1741 -1466 c13 -35 43 -105 67 -157 24 -52 44 -96 44 -97 0 -2
-17 -4 -38 -4 -34 0 -40 4 -53 32 -12 29 -19 33 -54 34 -54 1 -62 -3 -74 -37
-8 -25 -15 -29 -45 -29 l-35 0 35 78 c36 78 79 179 95 220 14 38 33 25 58 -40z
m1015 -23 c18 -44 49 -115 69 -157 l36 -78 -40 0 c-35 0 -40 3 -53 35 -16 37
-27 40 -84 29 -21 -4 -34 -15 -42 -35 -10 -24 -18 -29 -46 -29 -42 0 -42 -2 4
95 22 44 52 113 68 153 36 90 47 89 88 -13z m1252 13 c15 -40 44 -110 66 -154
46 -100 46 -94 -1 -94 -34 0 -40 3 -46 27 -8 35 -21 43 -65 43 -44 0 -57 -8
-65 -43 -6 -24 -12 -27 -46 -27 l-39 0 29 59 c26 51 86 191 104 244 13 36 36
16 63 -55z m241 -23 c50 -52 93 -95 97 -95 3 0 6 41 6 90 l0 90 34 0 33 0 -1
-160 c-1 -88 -4 -159 -7 -157 -4 1 -47 40 -98 87 -50 47 -94 83 -98 80 -4 -3
-6 -40 -4 -82 l2 -78 -35 0 -36 0 0 129 c0 71 -3 143 -6 160 -11 53 17 37 113
-64z m398 -10 c23 -55 53 -123 68 -152 34 -66 34 -63 -11 -63 -34 0 -40 4 -53
33 -23 52 -101 54 -126 3 -14 -31 -22 -36 -50 -36 -40 0 -42 -12 16 111 27 57
57 128 67 157 26 73 40 65 89 -53z m362 82 c5 -4 8 -18 6 -31 -5 -24 -7 -25
-67 -19 -78 7 -114 -18 -122 -82 -9 -73 41 -118 117 -107 33 5 41 56 9 58 -35
2 -40 5 -40 24 0 18 7 20 60 20 l60 0 0 -69 c0 -80 -19 -95 -115 -95 -127 0
-201 126 -141 241 35 68 166 102 233 60z m-3709 -14 c-3 -25 -8 -28 -42 -31
l-39 -3 6 -125 6 -124 -40 0 -39 0 6 125 7 125 -41 0 c-40 0 -42 1 -42 30 l0
30 111 0 110 0 -3 -27z m240 0 c-3 -27 -5 -28 -70 -31 l-68 -3 0 -34 0 -35 60
0 c57 0 60 -1 60 -25 0 -24 -3 -25 -61 -25 l-60 0 3 -37 3 -38 65 0 c63 0 65
-1 68 -27 l3 -28 -105 0 -106 0 0 155 0 155 106 0 105 0 -3 -27z m421 -68 c33
-52 65 -95 71 -95 6 0 38 43 73 95 34 52 68 95 74 95 9 0 12 -39 12 -155 l0
-155 -34 0 -34 0 -3 68 -3 67 -35 -57 c-43 -71 -48 -71 -96 0 l-39 57 -3 -67
-3 -68 -32 0 -32 0 1 148 c1 81 2 150 3 155 3 22 25 -2 80 -88z m596 85 c15
-24 -6 -50 -41 -50 -25 0 -34 -4 -35 -17 0 -10 0 -66 1 -125 l1 -108 -39 0
-39 0 5 124 5 125 -39 3 c-34 3 -39 6 -42 31 l-3 27 110 0 c63 0 112 -4 116
-10z m484 1 c28 -18 3 -52 -33 -45 -69 12 -81 -47 -17 -81 128 -66 66 -205
-80 -180 -68 12 -49 61 21 56 68 -5 80 47 20 85 -86 54 -103 101 -55 149 25
26 113 36 144 16z m121 -56 c0 -36 4 -65 9 -65 22 0 72 55 82 91 11 35 15 39
46 39 52 0 34 -71 -34 -130 l-35 -31 44 -57 c77 -101 75 -92 26 -92 -42 1 -44
3 -88 67 l-45 67 -3 -67 -3 -67 -32 0 -33 0 0 155 -1 155 33 0 34 0 0 -65z
m401 -30 c34 -53 67 -94 73 -92 6 2 38 44 71 92 84 125 84 125 84 -59 l0 -156
-34 0 -34 0 -3 68 -3 67 -35 -57 c-42 -71 -49 -71 -90 -8 -42 65 -53 64 -48
-7 l3 -58 -35 -3 -35 -3 1 153 c1 84 3 154 3 156 6 15 31 -14 82 -93z m1709
65 l0 -30 -70 0 -70 0 0 -35 0 -34 63 -3 c56 -3 62 -5 63 -25 1 -22 -3 -23
-63 -23 l-64 0 3 -37 3 -38 50 2 c75 4 95 -3 95 -32 l0 -25 -105 0 -105 0 0
155 0 155 100 0 100 0 0 -30z m210 15 c54 -28 69 -108 29 -159 l-21 -27 28
-42 c16 -23 33 -47 37 -54 6 -10 -3 -13 -35 -13 -41 0 -44 2 -71 50 -39 70
-67 70 -67 0 0 -50 0 -50 -32 -50 l-33 0 2 152 c2 84 3 154 3 156 0 10 137 -1
160 -13z m150 -340 c0 -3 -2 -5 -5 -5 -3 0 -5 2 -5 5 0 3 2 5 5 5 3 0 5 -2 5
-5z"/>
<path d="M2391 1959 c-237 -40 -422 -267 -422 -519 0 -512 649 -722 946 -306
272 382 -58 902 -524 825z m219 -389 c0 -29 -2 -30 -46 -30 l-45 0 7 -135 7
-135 -42 0 -41 0 0 135 0 135 -40 0 c-38 0 -40 2 -40 30 l0 30 120 0 120 0 0
-30z"/>
<path d="M851 409 c-14 -41 -15 -39 12 -39 33 0 37 7 24 41 -14 37 -22 37 -36
-2z"/>
<path d="M1860 416 c-15 -40 -13 -46 16 -46 24 0 25 3 19 28 -10 42 -23 49
-35 18z"/>
<path d="M3117 423 c-2 -10 -8 -26 -12 -35 -6 -15 -2 -18 24 -18 17 0 31 2 31
4 0 1 -5 17 -11 35 -12 35 -24 40 -32 14z"/>
<path d="M3742 415 c-17 -37 -15 -45 13 -45 28 0 34 24 12 54 -12 17 -14 16
-25 -9z"/>
<path d="M4550 466 c0 -44 1 -46 28 -46 41 0 54 13 50 51 -3 31 -6 34 -40 37
l-38 3 0 -45z"/>
<path d="M4088 23 c18 -2 45 -2 60 0 15 2 0 4 -33 4 -33 0 -45 -2 -27 -4z"/>
<path d="M4273 23 c20 -2 54 -2 75 0 20 2 3 4 -38 4 -41 0 -58 -2 -37 -4z"/>
</g>
</svg>
