<?xml version="1.0" standalone="no"?>
<!DOCTYPE svg PUBLIC "-//W3C//DTD SVG 20010904//EN"
 "http://www.w3.org/TR/2001/REC-SVG-20010904/DTD/svg10.dtd">
<svg version="1.0" xmlns="http://www.w3.org/2000/svg"
 width="2064.000000pt" height="848.000000pt" viewBox="0 0 2064.000000 848.000000"
 preserveAspectRatio="xMidYMid meet">
<g transform="translate(0.000000,848.000000) scale(0.100000,-0.100000)"
fill="#000000" stroke="none">
<path d="M9750 8441 c0 -56 -13 -63 -130 -60 -94 2 -102 1 -116 -19 -13 -19
-25 -22 -82 -22 -58 0 -69 -3 -80 -21 -12 -18 -20 -20 -53 -15 -33 5 -42 3
-61 -19 -13 -16 -32 -25 -50 -25 -15 0 -28 -4 -28 -9 0 -13 -67 -34 -85 -27
-8 3 -21 -1 -29 -9 -19 -20 -61 -35 -94 -35 -16 0 -32 -8 -40 -20 -7 -12 -23
-20 -40 -20 -16 0 -32 -8 -40 -20 -7 -12 -23 -20 -40 -20 -17 0 -32 -8 -40
-21 -9 -13 -20 -19 -32 -16 -13 3 -32 -8 -59 -34 -22 -21 -47 -39 -57 -39 -9
0 -36 -18 -60 -40 -24 -22 -52 -40 -61 -40 -22 0 -93 -71 -93 -94 0 -9 -5 -16
-10 -16 -6 0 -22 -12 -36 -27 -23 -25 -25 -25 -38 -8 -12 17 -24 7 -142 -114
-71 -73 -131 -142 -134 -154 -3 -12 -15 -24 -27 -27 -32 -8 -93 -68 -93 -91 0
-12 -28 -50 -65 -89 -62 -63 -65 -69 -54 -93 14 -31 -1 -57 -32 -57 -11 0 -25
-13 -35 -31 -9 -18 -33 -49 -55 -70 -21 -21 -39 -47 -39 -57 0 -10 -7 -27 -15
-38 -8 -10 -15 -28 -15 -40 0 -11 -11 -30 -25 -42 -15 -13 -22 -28 -19 -37 4
-9 -2 -26 -14 -38 -11 -12 -23 -41 -27 -65 -4 -23 -14 -50 -23 -59 -9 -8 -17
-27 -18 -42 -1 -14 -2 -34 -3 -43 0 -9 -8 -24 -17 -33 -9 -9 -18 -35 -20 -57
-2 -23 -10 -51 -18 -62 -7 -12 -17 -59 -21 -104 -4 -49 -13 -88 -21 -97 -23
-22 -22 -939 1 -961 14 -15 18 -40 20 -142 0 -24 6 -47 13 -51 16 -10 32 -66
32 -112 0 -24 7 -42 21 -55 17 -15 20 -26 15 -56 -5 -31 -2 -41 20 -62 16 -14
24 -30 21 -39 -3 -9 3 -25 14 -38 10 -12 19 -29 19 -36 0 -8 9 -26 20 -40 11
-14 20 -33 20 -43 0 -9 9 -25 20 -35 11 -10 20 -28 20 -40 0 -25 15 -41 45
-47 25 -4 33 -48 11 -60 -9 -5 -16 -18 -16 -29 0 -26 30 -37 45 -16 14 20 50
22 61 5 4 -7 -2 -18 -14 -26 -29 -19 -28 -30 3 -42 14 -5 25 -17 25 -28 0 -10
20 -38 45 -62 31 -31 44 -51 41 -63 -6 -23 77 -107 120 -122 16 -6 30 -19 32
-30 2 -11 13 -29 23 -40 241 -248 282 -287 291 -271 5 9 15 16 23 16 22 0 28
-20 11 -39 -17 -19 -21 -41 -8 -41 5 0 19 -9 31 -19 13 -11 29 -17 38 -14 9 4
29 -9 54 -36 24 -25 48 -41 62 -41 14 0 37 -16 60 -40 24 -26 45 -40 62 -40
14 0 30 -9 37 -20 8 -12 24 -20 40 -20 17 0 33 -8 40 -20 8 -12 24 -20 39 -20
14 0 34 -10 46 -24 14 -16 28 -23 41 -19 13 3 25 -3 35 -18 9 -12 28 -23 44
-24 15 -1 35 -3 44 -3 9 -1 26 -11 38 -21 17 -15 31 -18 58 -14 29 5 39 1 58
-20 20 -21 30 -24 63 -20 33 4 42 2 55 -17 14 -21 24 -23 81 -21 56 2 66 -1
79 -20 24 -33 901 -32 925 2 14 20 22 21 94 17 75 -5 82 -3 103 20 19 21 29
24 60 19 30 -5 40 -2 57 19 13 14 33 24 47 24 16 0 31 8 39 21 11 18 21 20 77
17 58 -2 67 0 81 20 9 13 26 22 42 22 16 0 32 8 40 20 7 12 23 20 40 20 16 0
32 8 40 20 7 12 23 20 40 20 16 0 32 8 40 20 7 11 23 20 37 20 17 0 38 14 62
40 23 25 46 40 60 40 15 0 38 15 60 40 22 23 46 40 59 40 14 0 56 35 121 100
73 73 105 99 117 94 24 -9 87 54 80 81 -3 15 24 49 121 144 79 79 125 131 125
144 0 12 24 43 57 75 50 47 56 55 40 63 -28 16 -21 49 11 55 38 8 93 59 85 80
-4 10 4 25 20 40 17 15 24 30 20 40 -4 11 9 30 41 60 27 24 47 51 46 61 -4 39
1 61 19 82 10 12 17 30 14 40 -3 12 4 25 18 35 14 9 24 27 25 43 1 16 2 36 3
45 0 9 9 24 18 33 9 10 17 24 18 34 6 51 19 90 32 96 13 4 15 17 9 69 -6 62 4
114 25 127 13 8 13 1020 0 1028 -20 13 -29 59 -24 124 5 56 3 68 -11 73 -11 4
-16 18 -16 48 0 34 -6 48 -30 71 -19 19 -30 39 -30 57 0 15 -4 28 -9 28 -12 0
-31 55 -31 89 0 15 -8 31 -20 39 -12 7 -20 23 -20 40 0 16 -8 32 -20 40 -12 7
-20 23 -20 40 0 16 -8 32 -20 40 -12 7 -20 23 -20 40 0 16 -8 32 -20 40 -12 7
-20 23 -20 38 0 27 -37 65 -73 74 -34 9 -45 39 -22 56 19 14 19 16 -24 53 -30
26 -42 44 -38 54 4 11 -20 42 -78 99 -67 66 -83 87 -79 104 6 24 -18 44 -45
37 -10 -2 -74 55 -179 161 -113 115 -168 163 -178 159 -10 -4 -30 9 -55 36
-24 25 -48 41 -62 41 -14 0 -37 16 -60 40 -24 26 -45 40 -62 40 -14 0 -30 9
-37 20 -8 12 -24 20 -40 20 -17 0 -33 8 -40 20 -8 12 -24 20 -40 20 -17 0 -33
8 -40 20 -8 12 -24 20 -40 20 -17 0 -33 8 -40 20 -8 12 -24 20 -40 20 -33 0
-75 15 -94 35 -8 8 -21 12 -29 9 -18 -7 -85 14 -85 27 0 5 -13 9 -28 9 -18 0
-36 9 -49 24 -19 22 -27 24 -81 19 -54 -5 -62 -3 -74 16 -11 18 -22 21 -85 21
-63 0 -72 2 -78 20 -7 23 -6 23 -103 20 -86 -2 -102 7 -102 61 l0 39 -195 0
-195 0 0 -39z m275 -432 c33 -6 118 -14 190 -19 71 -4 150 -14 175 -23 25 -8
68 -19 95 -25 164 -34 211 -49 297 -93 20 -10 45 -19 55 -19 10 0 27 -6 38
-14 11 -7 36 -18 55 -25 20 -6 59 -27 89 -46 29 -19 54 -35 56 -35 2 0 30 -17
62 -38 32 -21 81 -53 108 -71 51 -33 170 -130 258 -211 81 -74 295 -332 355
-427 30 -48 70 -110 88 -138 83 -124 207 -490 246 -725 16 -101 16 -619 0
-720 -24 -144 -84 -366 -127 -465 -23 -55 -53 -127 -66 -160 -13 -33 -37 -79
-54 -101 -16 -23 -38 -54 -47 -70 -57 -93 -96 -146 -214 -285 -190 -225 -390
-405 -524 -472 -25 -12 -53 -29 -120 -73 -19 -13 -98 -50 -175 -84 -77 -34
-148 -65 -158 -71 -27 -15 -175 -56 -230 -64 -26 -3 -62 -12 -80 -19 -18 -8
-81 -16 -142 -20 -60 -3 -153 -11 -205 -17 -76 -9 -128 -8 -265 5 -94 9 -195
16 -225 16 -30 0 -68 7 -85 16 -16 8 -50 17 -75 20 -50 6 -168 39 -215 59 -16
8 -84 37 -150 66 -104 45 -206 99 -303 161 -15 10 -48 29 -74 43 -71 38 -362
308 -470 437 -82 98 -109 134 -163 216 -5 9 -38 59 -72 111 -35 52 -70 115
-79 140 -10 25 -37 93 -61 150 -24 58 -53 145 -64 194 -11 50 -22 93 -24 97
-53 85 -71 744 -27 949 13 58 25 107 27 111 2 4 13 49 25 101 11 52 31 117 44
144 13 28 43 98 66 157 53 135 217 391 337 528 130 148 342 339 464 418 209
137 250 162 276 168 15 4 39 13 53 20 14 7 54 25 90 39 36 15 84 35 108 46 23
10 53 19 65 19 12 1 40 8 62 16 22 8 71 19 109 24 38 6 75 15 83 21 8 7 76 16
161 20 81 5 167 13 192 18 63 13 98 13 165 0z m2449 -1593 c7 -30 -2 -56 -20
-56 -10 0 -14 12 -14 40 0 45 24 56 34 16z"/>
<path d="M9725 7849 c-27 -4 -98 -14 -157 -23 -58 -8 -115 -19 -126 -25 -10
-5 -48 -15 -84 -21 -67 -10 -109 -26 -269 -99 -25 -12 -50 -21 -54 -21 -9 0
-140 -75 -225 -128 -98 -62 -124 -81 -158 -112 -19 -17 -71 -61 -116 -99 -45
-38 -105 -97 -132 -131 -27 -34 -75 -92 -107 -129 -33 -36 -79 -97 -104 -136
-25 -38 -63 -95 -83 -125 -77 -114 -166 -337 -221 -555 -104 -415 -64 -945
101 -1320 12 -27 30 -73 40 -101 17 -49 51 -105 118 -199 16 -22 36 -54 45
-71 9 -18 38 -56 65 -85 27 -30 53 -62 59 -72 38 -70 400 -407 437 -407 5 0
79 -48 172 -111 37 -25 82 -46 184 -84 19 -7 49 -20 65 -29 17 -9 37 -16 45
-16 9 0 25 -6 36 -14 11 -8 38 -17 60 -21 21 -3 68 -15 104 -25 192 -55 265
-62 580 -57 215 3 285 8 320 20 25 8 66 18 92 22 26 3 50 10 53 15 3 5 27 12
53 16 46 7 147 40 207 69 17 8 60 26 97 40 75 28 126 55 178 95 19 15 47 33
61 41 63 33 148 95 199 143 30 29 84 75 119 102 34 27 90 82 123 123 33 41 79
97 104 125 24 28 66 87 93 131 28 44 63 98 79 120 60 81 167 347 202 500 12
55 29 120 37 145 19 61 34 347 27 545 -10 291 -129 689 -272 910 -95 147 -158
239 -172 254 -9 9 -36 41 -60 71 -61 77 -128 141 -331 318 -60 53 -284 184
-411 241 -27 11 -67 30 -90 40 -91 41 -148 61 -175 61 -15 0 -57 8 -93 19
-167 50 -550 77 -715 50z m463 -403 c20 -24 24 -25 117 -19 94 5 98 5 121 -20
19 -21 29 -24 63 -20 33 5 42 2 53 -16 8 -12 23 -21 39 -21 14 0 34 -10 46
-24 18 -20 28 -23 60 -19 36 5 42 2 76 -36 27 -30 43 -40 57 -36 10 3 21 1 25
-5 3 -5 20 -10 36 -10 22 0 32 -7 41 -25 6 -13 19 -27 30 -30 10 -4 23 -15 28
-25 6 -11 49 -57 96 -102 47 -46 90 -93 95 -105 5 -13 17 -23 29 -23 11 0 27
-12 37 -26 9 -15 39 -48 66 -74 33 -32 48 -54 44 -64 -4 -10 10 -31 40 -60 30
-30 44 -50 40 -61 -4 -9 1 -22 13 -32 11 -10 20 -28 20 -40 0 -13 11 -33 25
-45 15 -13 25 -32 25 -47 0 -15 8 -31 20 -39 13 -8 20 -23 20 -42 0 -17 4 -30
9 -30 16 0 33 -69 27 -105 -6 -29 -3 -38 19 -57 23 -20 26 -29 21 -60 -4 -25
-1 -41 9 -52 30 -30 35 -71 35 -311 0 -239 -5 -281 -34 -311 -11 -10 -13 -29
-9 -70 5 -51 4 -58 -20 -79 -23 -22 -25 -29 -20 -84 5 -53 3 -61 -16 -73 -12
-7 -21 -23 -21 -39 0 -15 -11 -35 -26 -48 -14 -12 -23 -28 -20 -36 7 -18 -12
-85 -24 -85 -6 0 -10 -16 -10 -35 0 -19 -3 -35 -7 -35 -22 -1 -124 -111 -119
-128 4 -12 -6 -29 -35 -55 -23 -22 -45 -53 -51 -73 -6 -24 -20 -42 -44 -56
-19 -11 -34 -24 -34 -28 0 -20 -54 -71 -70 -67 -24 6 -50 -11 -50 -33 0 -35
-12 -50 -40 -50 -19 0 -31 -6 -34 -18 -4 -11 -18 -25 -31 -32 -14 -8 -28 -24
-31 -37 -5 -18 -13 -23 -40 -23 -23 0 -37 -6 -44 -20 -6 -12 -21 -20 -36 -20
-14 0 -37 -9 -51 -20 -14 -11 -32 -20 -40 -20 -8 0 -26 -9 -40 -20 -14 -11
-47 -23 -74 -26 -27 -4 -49 -10 -49 -15 0 -13 -79 -31 -110 -24 -22 5 -33 1
-53 -21 -21 -23 -31 -26 -61 -21 -24 4 -40 1 -50 -9 -30 -29 -71 -34 -304 -33
-263 1 -331 7 -357 33 -12 12 -26 15 -46 11 -33 -8 -93 7 -114 29 -10 10 -26
13 -49 9 -35 -5 -106 12 -106 26 0 5 -21 11 -46 14 -25 2 -59 14 -75 26 -15
12 -36 21 -45 21 -9 0 -32 16 -51 35 -21 21 -45 35 -59 35 -13 0 -32 10 -42
21 -33 40 -54 57 -80 64 -16 4 -76 56 -141 121 -109 110 -114 114 -128 94 -17
-24 -27 -25 -47 -4 -21 21 -12 34 25 34 51 0 35 33 -62 129 -63 62 -90 95 -85
106 3 9 -4 24 -19 37 -15 13 -25 32 -25 47 0 15 -8 31 -20 39 -12 7 -20 23
-20 40 0 16 -8 32 -20 40 -12 7 -20 23 -20 40 0 16 -8 32 -20 40 -15 9 -20 23
-20 60 0 36 -5 50 -20 59 -19 12 -19 27 -19 492 0 468 5 581 28 589 6 2 11 17
11 33 0 18 7 33 20 41 12 8 20 24 20 39 0 15 10 34 25 47 15 14 22 27 18 38
-4 10 4 25 20 40 15 14 23 30 21 41 -3 11 5 28 20 42 14 14 26 33 26 43 0 20
102 127 139 147 24 13 28 31 7 31 -20 0 -29 16 -21 40 4 12 15 20 27 20 12 0
28 7 37 15 9 8 55 53 102 100 55 54 94 85 107 85 13 0 37 17 58 40 23 26 45
40 60 40 16 0 38 15 61 40 25 27 46 40 63 40 14 0 30 8 38 20 7 12 23 20 40
20 17 0 32 8 40 21 11 18 20 21 53 16 34 -4 44 -1 64 20 19 22 29 25 59 20 30
-5 40 -2 60 20 23 25 26 25 121 20 93 -6 97 -5 117 19 l22 24 221 0 221 0 22
-24z"/>
<path d="M9832 6810 c-16 -15 -112 -28 -217 -29 -49 -1 -63 -5 -73 -21 -7 -11
-23 -20 -37 -20 -17 0 -38 -14 -62 -40 -24 -26 -46 -40 -61 -40 -33 0 -73 -45
-77 -87 -3 -36 -20 -63 -39 -63 -19 0 -86 -70 -86 -90 0 -11 -17 -37 -37 -57
-49 -50 -58 -151 -15 -179 16 -10 22 -22 19 -35 -3 -13 7 -30 31 -54 21 -19
46 -44 57 -54 11 -11 29 -21 40 -23 28 -5 32 -38 6 -45 -23 -6 -29 -41 -9 -61
18 -18 25 -15 32 13 6 24 50 55 61 43 8 -7 -20 -57 -40 -72 -16 -11 -15 -15
14 -43 49 -49 51 -64 51 -374 0 -178 4 -289 10 -289 11 0 33 -77 25 -90 -3 -5
7 -20 21 -33 17 -16 25 -31 21 -41 -9 -23 217 -246 242 -239 11 3 30 -10 54
-36 23 -26 46 -41 60 -41 13 0 33 -11 45 -25 28 -32 94 -31 118 3 9 13 26 22
42 22 16 0 32 8 40 20 7 11 23 20 36 20 33 0 319 284 322 320 1 14 2 42 3 62
0 20 8 44 17 53 14 14 16 48 15 273 -2 248 5 317 30 332 6 4 12 22 13 40 1 18
10 36 19 42 30 16 67 62 67 82 0 10 25 43 55 73 36 36 55 63 55 78 0 13 9 30
21 38 19 14 21 25 21 122 0 97 -2 108 -21 122 -12 8 -21 25 -21 39 0 15 -14
37 -40 60 -25 22 -40 45 -40 59 0 31 -84 115 -115 115 -14 0 -37 15 -59 40
-23 26 -45 40 -60 40 -14 0 -32 9 -40 22 -13 18 -24 21 -77 19 -92 -3 -188 9
-205 27 -22 21 -211 23 -232 2z m566 -432 c17 -21 13 -189 -5 -217 l-15 -24
-147 7 c-185 8 -183 9 -171 -94 5 -41 9 -230 10 -420 0 -190 5 -390 10 -444 7
-71 7 -103 -1 -113 -13 -15 -264 -19 -287 -5 -10 7 -10 58 0 263 18 401 17
799 -3 810 -9 4 -77 6 -150 2 -172 -8 -169 -10 -169 126 0 62 4 101 12 109 18
18 901 17 916 0z"/>
<path d="M7662 7168 c2 -15 10 -23 23 -23 13 0 21 8 23 23 3 18 -1 22 -23 22
-22 0 -26 -4 -23 -22z"/>
<path d="M1147 2648 c-11 -10 -27 -19 -36 -19 -9 -1 -27 -2 -41 -3 -14 -1 -41
-19 -61 -39 -21 -20 -46 -37 -56 -37 -25 0 -173 -148 -173 -172 0 -10 -18 -38
-40 -62 -22 -24 -40 -50 -40 -59 0 -9 -7 -23 -16 -32 -29 -28 -26 -132 4 -160
15 -14 22 -29 19 -39 -4 -10 7 -29 32 -54 21 -21 42 -49 46 -62 4 -14 22 -42
41 -62 22 -25 35 -51 39 -82 4 -24 15 -52 26 -62 17 -15 18 -34 17 -262 -1
-242 0 -246 21 -256 18 -8 21 -18 21 -63 0 -29 4 -53 10 -53 5 0 13 -15 18
-32 11 -39 266 -298 292 -298 10 0 29 -9 43 -20 14 -11 32 -20 40 -20 7 0 24
-9 37 -20 13 -11 28 -20 35 -20 7 0 22 9 35 20 13 11 30 21 39 21 9 1 28 2 43
3 18 1 40 15 62 39 18 20 42 37 53 37 11 0 30 12 44 26 29 31 125 30 160 -2
17 -15 21 -16 37 -2 9 9 23 13 30 11 17 -7 15 -30 -4 -41 -23 -13 -9 -32 22
-32 16 0 39 -14 63 -38 l38 -38 238 -3 c183 -2 243 -6 260 -17 18 -12 24 -12
44 3 20 14 60 17 262 19 202 2 241 5 255 18 8 9 23 17 32 17 9 1 29 2 43 3 16
1 40 17 61 39 20 20 43 37 52 37 9 0 30 10 46 22 22 16 45 22 86 23 42 0 58 5
65 18 20 34 52 21 46 -18 -8 -48 27 -72 43 -30 13 35 44 30 48 -8 3 -22 12
-32 39 -44 20 -8 42 -21 50 -28 7 -8 20 -12 29 -8 8 3 25 -4 38 -16 31 -30
214 -35 241 -7 21 20 98 21 118 1 23 -23 164 -24 198 -2 14 10 45 19 68 21 30
2 47 10 58 26 10 14 22 20 35 17 12 -3 27 4 41 19 l22 24 237 -3 c228 -2 237
-3 267 -24 16 -13 37 -23 44 -23 8 0 26 -9 40 -20 14 -11 32 -20 40 -20 7 0
24 -9 36 -19 12 -11 37 -19 56 -19 19 0 44 8 56 19 12 10 30 19 39 19 9 0 32
15 51 34 19 18 47 36 62 40 19 5 32 16 38 36 6 16 26 38 45 49 19 12 43 34 52
51 9 16 30 35 45 41 17 7 34 26 42 46 11 26 19 33 31 29 20 -8 87 62 79 82 -8
20 13 42 40 42 27 0 49 -24 42 -45 -6 -14 97 -125 115 -125 12 0 38 -57 38
-85 0 -22 4 -26 23 -23 15 2 22 10 22 25 0 34 13 38 40 13 31 -29 31 -38 0
-50 -27 -10 -44 -55 -27 -72 6 -6 15 -2 25 12 18 26 64 21 74 -8 10 -28 35
-52 55 -52 10 0 21 -6 24 -13 20 -54 161 -84 207 -45 11 10 28 18 37 18 9 0
33 16 53 35 20 19 42 35 50 35 8 0 22 10 30 23 l16 22 7 -22 c9 -31 42 -30 54
2 14 38 68 33 83 -8 3 -9 13 -17 21 -17 8 0 26 -14 40 -32 16 -21 34 -33 53
-34 15 -1 35 -2 44 -3 9 0 26 -10 39 -21 26 -22 77 -19 115 6 11 8 26 14 33
14 8 0 25 9 39 20 14 11 34 20 43 20 10 0 23 7 30 15 7 8 22 15 34 15 12 0 35
14 52 31 28 30 30 31 107 27 59 -4 85 -10 107 -26 16 -12 37 -22 46 -22 9 0
32 -17 50 -37 22 -24 44 -38 62 -39 15 -1 35 -2 44 -3 9 0 24 -8 33 -17 14
-14 45 -16 218 -16 187 0 204 -1 223 -19 31 -29 284 -35 316 -7 12 10 37 19
57 19 77 3 89 5 105 22 10 9 25 18 34 18 9 1 29 2 43 3 15 1 34 10 43 19 23
23 99 23 122 0 9 -9 28 -18 43 -19 14 -1 33 -2 42 -3 9 0 26 -10 38 -20 28
-25 84 -25 112 0 12 10 29 20 38 20 9 1 28 2 42 3 15 1 34 10 43 19 10 9 26
17 35 17 10 0 24 7 31 15 16 20 99 20 106 1 3 -8 20 -17 39 -20 18 -4 35 -12
37 -18 3 -7 18 -13 34 -14 16 -1 37 -2 46 -3 9 0 24 -8 33 -17 23 -24 177 -24
200 0 9 9 24 16 32 16 9 0 24 7 34 16 10 9 33 19 50 23 38 8 49 27 20 36 -12
3 -21 13 -21 21 0 21 76 19 84 -2 4 -10 15 -14 33 -12 37 4 37 32 0 36 -37 4
-37 39 0 53 34 13 53 5 53 -21 0 -13 7 -20 19 -20 22 0 33 21 21 41 -5 8 -4
19 2 26 16 20 56 16 70 -7 8 -12 24 -20 39 -20 18 0 39 -14 68 -45 24 -25 51
-45 63 -45 11 0 36 -17 56 -37 21 -22 45 -38 61 -39 14 -1 33 -2 42 -3 9 0 26
-10 38 -20 28 -25 84 -25 112 0 12 10 30 19 41 19 10 0 28 11 40 25 12 14 31
25 43 25 12 0 30 9 41 21 29 33 477 26 523 -8 17 -13 37 -23 44 -23 8 0 26 -9
40 -20 14 -11 32 -20 40 -20 9 0 23 -7 32 -16 20 -20 182 -24 194 -5 21 34
172 34 212 1 26 -24 83 -23 110 1 12 10 29 19 37 19 9 0 23 7 33 16 10 9 33
19 50 23 38 8 49 27 20 36 -30 9 -27 35 4 35 14 0 25 -4 25 -10 0 -34 74 -34
85 1 5 14 15 19 40 19 32 0 58 8 112 32 27 13 46 1 40 -23 -8 -29 34 -53 78
-45 19 4 35 3 35 -1 1 -23 60 -77 86 -79 16 -1 37 -2 46 -3 9 0 24 -8 33 -17
23 -24 177 -24 200 0 21 21 132 22 161 2 32 -23 177 -25 198 -3 10 9 25 17 35
17 10 0 37 18 59 41 30 29 47 39 61 34 18 -5 51 16 51 34 0 8 62 37 103 46 17
5 27 14 27 26 0 25 40 25 69 0 13 -11 29 -17 38 -14 9 3 25 -5 39 -20 14 -15
30 -23 41 -21 11 3 28 -5 42 -20 14 -14 32 -26 41 -26 10 0 29 -9 43 -20 14
-11 32 -20 40 -20 7 0 24 -9 36 -20 20 -17 38 -19 139 -18 179 1 197 -1 219
-20 27 -23 134 -22 158 2 9 9 24 16 32 16 9 0 25 8 36 17 10 10 42 20 70 23
56 5 81 35 36 42 -43 6 -33 28 13 28 64 0 114 17 132 45 22 33 46 33 46 -1 0
-18 -6 -28 -20 -31 -12 -3 -20 -12 -18 -22 6 -28 37 -24 67 8 35 38 39 38 43
4 4 -35 48 -48 48 -14 0 12 4 21 8 21 14 0 32 -23 32 -41 0 -26 55 -80 75 -73
9 4 25 -2 38 -14 32 -31 168 -37 199 -10 11 10 28 19 37 19 9 1 29 2 44 3 16
1 31 7 35 13 15 23 73 45 88 32 9 -7 30 -9 59 -6 46 7 94 -5 107 -26 4 -6 19
-12 35 -13 15 -1 36 -2 45 -3 9 0 24 -9 34 -18 10 -10 33 -18 58 -18 102 -2
126 -6 141 -22 25 -24 281 -23 320 3 17 11 50 18 88 20 34 1 63 7 65 13 11 34
253 43 287 11 15 -14 43 -20 120 -26 55 -4 109 -13 120 -20 17 -10 23 -10 39
2 17 12 23 12 45 -3 33 -21 160 -21 193 1 16 10 62 16 145 19 93 3 126 8 138
20 33 34 153 33 205 -1 40 -26 163 -22 193 6 13 12 31 22 40 22 10 0 30 8 44
17 46 30 216 32 237 2 15 -22 24 -25 107 -28 20 0 46 -9 57 -20 27 -22 93 -22
116 2 9 8 35 18 58 22 24 4 54 15 68 25 14 9 45 24 70 32 55 18 68 52 26 68
-33 12 -33 16 4 35 38 20 50 19 50 -4 0 -26 24 -43 57 -39 37 4 43 34 9 49
-34 16 -33 35 4 69 25 23 29 33 24 59 -8 37 6 57 46 66 28 6 28 7 26 76 -3 60
-7 72 -26 86 -18 13 -21 22 -17 55 3 26 0 43 -9 52 -47 47 -47 214 -1 261 25
24 21 437 -4 466 -10 12 -19 30 -19 39 0 10 -7 23 -15 30 -8 7 -18 25 -23 41
-9 34 -348 379 -373 379 -9 0 -28 9 -42 20 -14 11 -32 20 -40 20 -7 0 -24 9
-37 20 -14 12 -31 18 -42 14 -27 -8 -96 5 -113 23 -23 23 -377 22 -400 -1 -16
-16 -21 -17 -78 -21 -16 -1 -32 -7 -36 -13 -19 -31 -152 -33 -171 -2 -8 12
-22 15 -102 18 -20 1 -44 9 -52 18 -24 23 -498 23 -522 0 -8 -9 -23 -17 -32
-18 -9 0 -29 -2 -44 -3 -14 -1 -34 -9 -43 -18 -9 -10 -24 -17 -34 -17 -10 0
-28 -9 -41 -20 -28 -24 -63 -26 -86 -3 -9 9 -28 18 -43 19 -14 1 -34 2 -43 3
-9 0 -24 8 -33 18 -16 15 -29 18 -107 21 -20 1 -44 9 -53 18 -19 20 -346 25
-353 5 -5 -16 -79 -33 -112 -26 -22 5 -33 1 -53 -21 -16 -17 -31 -25 -41 -21
-10 4 -25 -4 -40 -20 -15 -16 -30 -24 -40 -20 -12 5 -34 -11 -73 -53 -42 -46
-63 -60 -84 -60 -33 0 -48 -19 -25 -32 9 -5 16 -15 16 -22 0 -21 -28 -27 -45
-9 -15 14 -19 12 -52 -26 -35 -39 -39 -41 -96 -41 l-60 0 -104 105 c-63 64
-112 105 -125 105 -11 0 -37 17 -59 38 l-39 38 -94 3 c-91 2 -95 1 -119 -25
-16 -17 -31 -25 -42 -21 -17 7 -25 0 -102 -85 -32 -35 -47 -45 -63 -41 -15 4
-26 -1 -36 -16 -11 -16 -26 -21 -57 -21 -40 0 -47 5 -126 85 -46 47 -91 85
-101 85 -9 0 -29 9 -43 20 -14 11 -32 20 -40 20 -9 0 -23 7 -31 15 -24 25
-131 27 -158 3 -11 -10 -28 -18 -36 -18 -8 0 -43 -27 -78 -60 -34 -33 -70 -60
-80 -60 -27 0 -104 -80 -104 -107 0 -31 -10 -29 -42 7 -14 17 -35 30 -46 30
-11 0 -23 7 -26 16 -4 11 -13 14 -30 10 -16 -4 -29 1 -46 19 -13 14 -32 25
-43 25 -10 0 -36 18 -58 39 -26 25 -46 37 -58 34 -12 -3 -24 4 -34 17 -14 21
-24 22 -120 22 l-104 0 -48 -51 c-28 -29 -61 -55 -76 -58 -15 -3 -47 -25 -71
-49 -53 -54 -109 -61 -146 -19 -12 14 -31 25 -43 25 -12 0 -47 26 -83 60 -35
33 -70 60 -78 60 -8 0 -27 9 -41 21 -23 17 -39 20 -118 18 l-91 -3 -57 -58
c-35 -35 -66 -58 -79 -58 -12 0 -38 -16 -58 -35 -19 -19 -44 -35 -55 -35 -12
0 -21 -10 -27 -32 -13 -50 -71 -42 -132 18 -24 24 -52 44 -62 44 -10 0 -38 18
-62 40 -24 22 -50 40 -59 40 -9 0 -23 7 -32 16 -22 22 -98 22 -120 0 -9 -9
-24 -16 -34 -16 -10 0 -36 -18 -59 -40 -22 -22 -49 -40 -59 -40 -10 0 -56 -38
-103 -85 -62 -62 -91 -85 -110 -85 -14 0 -31 -9 -38 -20 -10 -17 -23 -20 -75
-20 l-62 0 -80 82 c-48 48 -92 84 -111 89 -17 5 -54 34 -83 64 -34 36 -57 52
-67 48 -10 -3 -25 4 -39 19 -27 30 -132 32 -161 3 -8 -8 -24 -15 -34 -15 -10
0 -46 -29 -81 -65 -43 -45 -70 -65 -87 -65 -13 0 -31 -9 -40 -19 -19 -21 -88
-35 -97 -20 -4 5 -24 9 -46 9 -41 0 -53 22 -27 48 14 14 -86 111 -115 112 -9
0 -37 18 -61 40 -24 22 -50 40 -58 40 -8 0 -24 8 -36 18 -28 25 -132 24 -157
-1 -9 -9 -25 -17 -36 -17 -10 0 -29 -11 -41 -25 -13 -15 -32 -25 -47 -25 -15
0 -31 -8 -38 -19 -17 -27 -139 -27 -156 0 -7 11 -23 19 -38 19 -15 0 -34 10
-47 25 -12 14 -31 25 -41 25 -11 0 -27 7 -35 16 -19 18 -184 23 -195 6 -13
-21 -58 -29 -146 -27 -123 3 -122 3 -140 22 -16 15 -29 18 -106 21 -20 1 -45
10 -57 20 -28 25 -132 24 -157 -1 -9 -9 -33 -18 -53 -18 -78 -3 -90 -5 -106
-22 -10 -9 -24 -17 -33 -17 -9 0 -35 -18 -59 -40 -24 -22 -53 -40 -64 -40 -11
0 -34 -17 -52 -37 -18 -20 -43 -46 -54 -57 -12 -12 -23 -30 -25 -40 -6 -28
-24 -30 -48 -5 l-20 22 -7 -27 c-7 -31 -19 -33 -36 -6 -7 11 -24 20 -38 20
-18 0 -44 19 -89 65 -35 36 -72 65 -83 65 -11 0 -37 17 -59 38 -38 38 -39 38
-129 41 -78 2 -94 -1 -117 -18 -14 -12 -33 -21 -42 -21 -9 0 -37 -20 -61 -45
-29 -30 -53 -45 -70 -45 -14 0 -30 -8 -38 -20 -19 -31 -92 -28 -120 5 -12 14
-31 25 -43 25 -12 0 -47 26 -83 60 -35 33 -70 60 -78 60 -8 0 -27 9 -41 20
-14 11 -40 20 -60 20 -20 0 -43 7 -52 16 -25 25 -536 25 -560 0 -9 -9 -24 -17
-33 -17 -9 -1 -28 -2 -42 -3 -14 -1 -43 -19 -65 -40 -22 -20 -49 -46 -61 -56
-12 -11 -28 -20 -37 -20 -23 0 -111 -97 -117 -128 -4 -19 -12 -28 -30 -30 -14
-2 -29 -7 -34 -12 -20 -19 -81 3 -126 46 -24 24 -52 44 -62 44 -10 0 -38 18
-62 40 -24 22 -50 40 -59 40 -9 0 -23 7 -32 16 -22 22 -98 22 -120 0 -9 -9
-23 -16 -32 -16 -8 0 -26 -9 -40 -20 -14 -11 -33 -20 -43 -20 -9 0 -64 -47
-120 -105 -78 -79 -110 -105 -130 -105 -14 0 -30 -8 -38 -20 -10 -17 -23 -20
-75 -20 l-62 1 -64 64 c-36 36 -71 65 -79 65 -8 0 -24 9 -36 20 -60 58 -115
100 -128 100 -9 0 -27 9 -41 20 -14 11 -32 20 -40 20 -9 0 -23 7 -32 16 -22
22 -98 22 -120 0 -9 -9 -24 -16 -34 -16 -9 0 -37 -20 -61 -45 -27 -27 -53 -45
-67 -45 -14 0 -37 -15 -59 -40 -41 -45 -76 -52 -96 -20 -8 12 -24 20 -39 20
-19 0 -47 22 -108 85 -46 47 -91 85 -101 85 -9 0 -29 9 -43 21 -23 17 -39 20
-117 18 -90 -3 -91 -3 -129 -41 -22 -21 -48 -38 -58 -38 -11 0 -39 -20 -64
-45 -28 -29 -53 -45 -69 -45 -14 0 -31 -9 -38 -20 -21 -35 -53 -23 -120 44
-36 36 -75 66 -91 69 -15 3 -48 29 -76 58 -49 52 -53 54 -137 57 -20 1 -44 9
-53 18 -24 25 -495 25 -520 1 -9 -10 -33 -18 -53 -18 -181 -7 -222 -7 -255 -3
-20 3 -44 13 -53 21 -24 25 -568 25 -597 1z m2379 -369 c8 -17 22 -50 29 -73
12 -38 23 -66 76 -198 12 -29 27 -69 35 -89 13 -37 78 -182 93 -210 5 -8 23
-51 40 -95 38 -95 42 -105 170 -364 75 -153 97 -207 89 -217 -11 -14 -250 -19
-282 -7 -10 4 -30 51 -52 120 -52 160 -32 149 -267 147 -108 0 -201 -4 -207
-8 -14 -9 -41 -69 -76 -173 -33 -95 -26 -92 -160 -92 -149 0 -149 0 -84 128
27 56 50 103 50 106 0 2 26 60 59 127 32 68 80 174 106 234 46 107 57 131 117
265 16 36 45 106 64 155 19 50 44 112 54 139 11 27 20 54 20 60 0 69 95 103
126 45z m4011 23 c6 -4 25 -48 42 -99 17 -50 44 -122 60 -160 16 -37 41 -98
55 -135 14 -36 33 -79 41 -95 22 -43 95 -204 95 -210 0 -3 9 -24 19 -47 10
-23 32 -70 49 -106 16 -36 45 -96 62 -135 18 -38 54 -115 81 -169 63 -128 65
-126 -107 -126 -136 0 -164 8 -164 44 0 54 -72 222 -97 227 -14 4 -301 3 -385
0 -22 -1 -33 -23 -73 -138 -44 -131 -46 -133 -152 -135 -185 -4 -207 18 -125
122 23 30 134 257 221 455 12 28 29 64 36 80 39 84 103 235 156 370 33 82 64
160 69 173 6 13 10 34 10 47 0 37 69 61 107 37z m5031 -4 c5 -7 20 -44 32 -83
13 -38 27 -74 32 -79 4 -6 8 -20 8 -32 0 -13 4 -25 10 -29 5 -3 14 -20 19 -38
10 -35 60 -157 91 -222 10 -22 48 -110 85 -195 83 -193 109 -249 198 -426 42
-86 68 -148 64 -158 -7 -17 -258 -25 -284 -8 -15 9 -43 74 -43 99 -1 10 -9 36
-20 58 -11 22 -19 47 -20 56 -1 45 -29 51 -231 53 -223 1 -215 5 -253 -96 -15
-40 -32 -81 -37 -90 -5 -10 -9 -29 -9 -43 0 -38 -28 -46 -157 -43 -132 3 -148
15 -107 76 18 26 154 298 154 307 0 3 17 42 38 87 21 46 67 148 102 228 35 80
71 164 82 187 10 23 18 45 18 48 0 3 11 30 24 58 12 29 31 77 41 107 10 30 21
60 25 65 5 6 13 29 19 52 6 23 18 49 27 58 19 18 78 20 92 3z m776 -65 c39
-43 179 -188 311 -323 133 -135 274 -280 315 -323 110 -115 134 -102 111 58
-16 109 -32 572 -20 602 8 22 12 23 133 23 149 0 149 0 142 -101 -17 -237 -25
-832 -14 -949 20 -206 18 -234 -15 -238 -24 -3 -71 40 -413 382 -212 212 -391
386 -398 386 -26 0 -35 -24 -30 -79 17 -187 32 -626 22 -638 -15 -18 -251 -19
-265 0 -7 8 -7 73 -1 192 15 285 5 826 -18 958 -21 120 -18 127 40 127 23 0
42 -15 100 -77z m1724 65 c5 -7 26 -58 45 -113 41 -115 115 -297 177 -435 23
-52 55 -124 70 -160 71 -171 202 -437 241 -489 11 -16 19 -39 17 -52 -3 -24
-5 -24 -133 -27 -176 -4 -169 -7 -198 85 -14 43 -28 91 -32 107 -3 16 -18 41
-33 56 l-28 27 -192 -2 c-126 -2 -198 -7 -207 -15 -7 -6 -32 -64 -55 -128 -23
-64 -47 -120 -53 -124 -17 -11 -229 -10 -246 1 -16 10 4 72 40 122 10 15 19
30 19 33 0 3 24 56 54 118 29 62 86 187 125 278 40 91 83 189 97 218 34 73
103 238 119 287 8 22 25 69 39 104 14 36 26 72 26 81 0 37 83 58 108 28z
m1502 -38 c71 -17 126 -41 147 -66 l22 -24 -24 -69 c-14 -38 -25 -76 -25 -84
0 -40 -75 -48 -135 -14 -37 20 -53 22 -200 22 l-160 0 -55 -32 c-148 -86 -212
-220 -197 -413 12 -159 116 -292 250 -319 23 -5 66 -14 94 -20 36 -7 68 -7
100 -1 27 6 72 14 101 20 77 13 75 11 70 115 -7 121 0 115 -127 115 -138 0
-146 5 -146 95 0 47 4 68 15 75 21 14 426 13 451 -1 19 -10 20 -20 19 -162 0
-84 2 -193 6 -244 8 -111 0 -129 -78 -166 -105 -49 -133 -59 -198 -67 -36 -5
-84 -14 -107 -21 -35 -11 -54 -11 -105 1 -35 7 -88 16 -118 19 -49 6 -159 43
-185 64 -5 4 -32 22 -60 40 -134 86 -208 212 -235 398 -12 80 -15 132 -9 161
5 24 13 70 18 103 18 117 88 253 167 326 47 43 147 107 179 114 17 4 41 15 55
23 42 27 370 35 470 12z m-14716 -3 c16 -12 18 -26 15 -101 -6 -126 -12 -131
-181 -122 -90 4 -129 3 -134 -5 -9 -16 -5 -658 6 -840 5 -97 5 -148 -2 -156
-7 -9 -47 -13 -133 -13 -130 0 -156 9 -140 47 12 28 24 946 13 960 -7 9 -45
10 -142 6 -131 -6 -133 -6 -149 18 -21 30 -25 204 -4 212 31 13 833 7 851 -6z
m940 7 c22 -8 23 -190 2 -219 -15 -21 -88 -23 -396 -10 -77 4 -141 2 -149 -3
-20 -14 -21 -270 0 -283 8 -5 106 -6 234 -2 276 8 265 12 265 -102 0 -113 12
-108 -271 -104 -144 3 -231 0 -237 -6 -18 -20 -2 -284 18 -295 11 -6 108 -6
261 0 309 11 303 14 307 -109 2 -53 -1 -88 -9 -97 -16 -20 -811 -21 -826 -1
-7 7 -7 56 -2 132 5 66 8 338 8 604 -1 394 2 485 13 492 15 10 758 12 782 3z
m2611 -8 c18 -13 18 -20 4 -197 -19 -253 -16 -808 6 -881 18 -62 20 -129 3
-146 -14 -14 -245 -17 -267 -3 -13 8 -12 43 3 255 20 270 16 315 -25 316 -7 0
-55 -75 -96 -150 -184 -337 -193 -350 -244 -350 -35 0 -40 4 -65 48 -58 101
-235 388 -253 410 -22 26 -46 29 -55 6 -7 -17 9 -390 20 -466 10 -74 3 -78
-137 -78 -140 0 -139 -1 -126 103 14 107 13 796 -2 887 -31 201 -23 250 41
250 33 0 66 -31 106 -100 14 -25 38 -63 53 -85 31 -46 117 -180 177 -275 22
-36 50 -78 62 -95 49 -71 130 -199 135 -216 4 -13 16 -19 36 -19 27 0 38 14
135 163 59 89 137 206 173 260 81 121 127 192 182 280 53 86 95 112 134 83z
m1465 -1 c20 -24 18 -167 -3 -198 -21 -32 -44 -36 -174 -26 -160 13 -152 22
-142 -146 4 -66 8 -253 8 -415 1 -162 6 -324 11 -360 13 -91 13 -91 -144 -88
l-131 3 4 373 c2 205 7 426 11 490 10 163 16 157 -145 144 -157 -13 -174 0
-173 141 0 61 4 79 17 87 30 18 846 13 861 -5z m1926 -9 c62 -29 64 -34 48
-116 -21 -101 -63 -129 -137 -90 -84 45 -242 11 -268 -57 -24 -65 -12 -111 44
-167 28 -28 70 -61 92 -72 207 -104 272 -162 305 -273 25 -83 24 -159 -6 -244
-32 -93 -178 -207 -266 -207 -20 0 -55 -7 -78 -15 -49 -17 -117 -19 -156 -5
-14 6 -61 13 -103 17 -64 5 -80 11 -102 33 l-26 26 18 74 c21 84 39 104 84 95
287 -57 411 -7 389 159 -12 84 -49 119 -201 195 -34 17 -65 31 -70 32 -24 2
-132 91 -162 134 -35 47 -36 53 -39 148 -6 163 34 240 163 308 86 46 94 47
265 48 143 1 159 -1 206 -23z m510 -6 c9 -18 9 -55 3 -130 -33 -398 -34 -389
36 -374 172 38 365 301 365 498 0 27 37 36 151 36 119 0 120 0 129 -26 7 -18
6 -35 -3 -57 -8 -18 -29 -70 -47 -117 -66 -168 -170 -302 -302 -387 -76 -49
-82 -64 -40 -111 37 -43 97 -118 192 -242 70 -91 139 -176 176 -214 5 -6 19
-26 29 -43 30 -52 16 -57 -142 -55 -158 3 -150 -1 -222 107 -26 39 -76 112
-111 163 -36 52 -82 122 -103 155 -54 86 -65 97 -104 97 -40 0 -38 26 -16
-268 15 -205 16 -234 3 -242 -18 -12 -240 -13 -258 -1 -10 6 -11 25 -1 97 14
110 15 624 2 909 -7 142 -7 214 0 223 7 9 42 12 131 10 118 -3 121 -4 132 -28z
m2517 7 c4 -7 5 -41 2 -77 -29 -343 -34 -877 -10 -1003 28 -145 26 -147 -134
-147 -150 0 -146 -5 -132 137 35 363 32 454 -15 436 -18 -7 -30 -26 -206 -342
-79 -141 -88 -151 -137 -151 -34 0 -46 14 -101 115 -24 44 -64 112 -89 150
-26 39 -59 93 -75 120 -84 146 -120 130 -106 -47 5 -51 10 -165 12 -253 l3
-160 -126 -3 c-157 -3 -153 -7 -138 119 17 154 24 716 10 833 -7 56 -17 132
-21 170 -20 156 77 161 168 9 20 -34 116 -184 212 -332 96 -149 185 -288 198
-311 36 -61 71 -57 114 15 18 30 64 100 102 157 38 57 112 168 164 248 52 80
103 156 113 170 10 14 32 49 49 77 51 85 112 115 143 70z m5925 11 c20 -25 12
-175 -11 -205 l-21 -26 -247 6 c-192 5 -250 3 -264 -7 -18 -13 -27 -258 -10
-274 4 -4 111 -6 238 -4 128 2 237 -1 243 -5 6 -4 13 -48 16 -96 6 -117 19
-111 -257 -104 -122 3 -228 2 -235 -3 -11 -7 -14 -38 -11 -147 3 -170 0 -167
126 -159 240 15 422 12 444 -8 33 -30 32 -193 -1 -201 -13 -3 -200 -4 -416 -3
l-394 3 -2 585 c-1 322 -6 594 -10 606 -5 14 -2 26 9 38 22 21 785 25 803 4z
m723 -5 c8 -6 34 -16 58 -23 302 -80 360 -545 91 -715 -26 -16 -38 -30 -34
-38 4 -7 31 -43 59 -82 28 -38 71 -98 96 -133 24 -35 62 -87 84 -115 52 -67
67 -101 52 -116 -18 -18 -281 -15 -296 3 -16 19 -168 269 -198 326 -33 62 -47
70 -124 70 -94 0 -92 5 -78 -203 7 -95 9 -181 6 -190 -8 -22 -238 -25 -255 -4
-6 8 -7 49 0 122 5 61 8 334 6 608 -2 325 0 499 7 502 23 10 512 0 526 -12z
m-12600 -434 c27 -14 14 -29 -27 -29 -22 0 -34 5 -34 13 0 28 26 35 61 16z
m7883 -886 c4 -9 2 -21 -3 -26 -15 -15 -41 0 -41 23 0 25 35 28 44 3z m-80
-39 c30 -12 18 -34 -19 -34 -22 0 -35 5 -35 13 0 26 21 34 54 21z"/>
<path d="M3429 1753 c-31 -78 -50 -124 -79 -190 -18 -39 -29 -76 -26 -82 11
-17 262 -15 269 3 3 7 -5 37 -18 65 -13 28 -28 66 -34 83 -44 147 -85 190
-112 121z"/>
<path d="M7441 1727 c-12 -24 -21 -48 -21 -54 0 -15 -44 -108 -59 -127 -7 -8
-11 -27 -9 -43 l3 -28 128 -3 c106 -2 128 0 133 12 5 14 -26 99 -88 239 -29
63 -58 65 -87 4z"/>
<path d="M12477 1758 c-8 -13 -18 -36 -21 -51 -4 -16 -25 -69 -47 -119 -55
-121 -57 -119 98 -116 149 3 149 3 110 95 -13 32 -38 92 -54 133 -33 83 -59
101 -86 58z"/>
<path d="M14985 1757 c-8 -13 -26 -50 -39 -83 -13 -32 -35 -85 -50 -116 -30
-66 -31 -74 -10 -82 31 -12 242 -7 251 7 9 14 5 47 -7 62 -5 6 -24 52 -43 103
-48 128 -72 154 -102 109z"/>
<path d="M18185 2031 c-13 -13 -10 -350 3 -363 6 -6 64 -8 130 -6 118 3 121 4
152 33 88 84 81 251 -14 313 -40 27 -251 45 -271 23z"/>
<path d="M19152 918 c4 -43 33 -46 33 -3 0 21 -5 31 -18 33 -15 3 -18 -2 -15
-30z"/>
</g>
</svg>
